<svg id="Group_8" data-name="Group 8" xmlns="http://www.w3.org/2000/svg" xmlns:xlink="http://www.w3.org/1999/xlink" width="18.036" height="18.04" viewBox="0 0 18.036 18.04">
  <defs>
    <clipPath id="clip-path">
      <rect id="Rectangle_17" data-name="Rectangle 17" width="18.036" height="18.04" transform="translate(0 0)" fill="none"/>
    </clipPath>
  </defs>
  <g id="Group_7" data-name="Group 7" clip-path="url(#clip-path)">
    <path id="Path_71" data-name="Path 71" d="M16.606,7.59h-.82a6.893,6.893,0,0,0-.979-2.338l.588-.588a1.43,1.43,0,0,0-2.022-2.022l-.58.58a6.817,6.817,0,0,0-2.345-.994v-.8a1.429,1.429,0,1,0-2.859,0v.8a6.8,6.8,0,0,0-2.345,1l-.581-.581A1.429,1.429,0,1,0,2.642,4.664l.588.588A6.893,6.893,0,0,0,2.251,7.59H1.43a1.43,1.43,0,1,0,0,2.86h.829a6.9,6.9,0,0,0,.984,2.325l-.6.6A1.429,1.429,0,1,0,4.663,15.4l.6-.6a6.836,6.836,0,0,0,2.327.983v.829a1.429,1.429,0,0,0,2.859,0v-.829a6.823,6.823,0,0,0,2.326-.983l.6.6A1.43,1.43,0,0,0,15.4,13.376l-.6-.6a6.925,6.925,0,0,0,.984-2.325h.828a1.43,1.43,0,0,0,0-2.86m-7.59,5.239A3.825,3.825,0,1,1,12.839,9a3.825,3.825,0,0,1-3.823,3.825" fill="#43a047" fill-rule="evenodd"/>
  </g>
</svg>
