<svg id="Group_4" data-name="Group 4" xmlns="http://www.w3.org/2000/svg" width="30.15" height="30.15" viewBox="0 0 30.15 30.15">
  <path id="Path_64" data-name="Path 64" d="M28.15,26.15H4V2A2,2,0,0,0,0,2V26.15a4,4,0,0,0,4,4H28.15a2,2,0,0,0,0-4Z" fill="#43a047"/>
  <path id="Path_65" data-name="Path 65" d="M11.37,6.24a2,2,0,0,0-4,0V22.18h4Z" fill="#43a047"/>
  <path id="Path_66" data-name="Path 66" d="M22.37,10.35a2,2,0,1,0-4,0V22.17h4Z" fill="#43a047"/>
  <path id="Path_67" data-name="Path 67" d="M16.87,14.29a2,2,0,1,0-4,0v7.94h4V14.29Z" fill="#43a047"/>
</svg>
