<svg xmlns="http://www.w3.org/2000/svg" xmlns:xlink="http://www.w3.org/1999/xlink" width="22.843" height="20.049" viewBox="0 0 22.843 20.049">
  <defs>
    <clipPath id="clip-path">
      <rect id="Rectangle_18" data-name="Rectangle 18" width="22.843" height="20.049" transform="translate(0 0)" fill="none"/>
    </clipPath>
  </defs>
  <g id="Group_12" data-name="Group 12" transform="translate(0 0)">
    <g id="Group_11" data-name="Group 11" clip-path="url(#clip-path)">
      <path id="Path_81" data-name="Path 81" d="M9.45,0A5.293,5.293,0,1,1,4.157,5.293,5.293,5.293,0,0,1,9.45,0" fill="#43a047" fill-rule="evenodd"/>
      <path id="Path_82" data-name="Path 82" d="M18.408,20.038l.492,0c0-.13-.014-.256-.02-.385a1.276,1.276,0,0,1-.472.387" fill="#43a047" fill-rule="evenodd"/>
      <path id="Path_83" data-name="Path 83" d="M16.419,18.858v-.2a4.743,4.743,0,0,1-.852-.361l-.148.148a1.331,1.331,0,0,1-1.84,0l-.11-.109a1.3,1.3,0,0,1,0-1.841l.15-.151a4.629,4.629,0,0,1-.362-.85h-.2a1.3,1.3,0,0,1-1.3-1.3v-.157a1.3,1.3,0,0,1,1.3-1.3h.2a4.8,4.8,0,0,1,.361-.858l-.143-.144a1.28,1.28,0,0,1-.235-.35A9.445,9.445,0,0,0,0,20.036c6.627-.018,11.157.029,17.2.008a1.3,1.3,0,0,1-.777-1.186" fill="#43a047" fill-rule="evenodd"/>
      <path id="Path_84" data-name="Path 84" d="M22.543,13.732h-.989l-.083-.4a3.761,3.761,0,0,0-.533-1.269l-.219-.34.7-.7a.3.3,0,0,0,0-.425l-.112-.114a.3.3,0,0,0-.424,0l-.7.7-.341-.223a3.669,3.669,0,0,0-1.27-.54l-.4-.083V9.366a.3.3,0,0,0-.3-.3H17.72a.3.3,0,0,0-.3.3v.976l-.4.083a3.7,3.7,0,0,0-1.271.54l-.341.223-.7-.7a.3.3,0,0,0-.426,0l-.107.109a.3.3,0,0,0-.091.215.291.291,0,0,0,.088.21l.7.7-.219.339a3.761,3.761,0,0,0-.533,1.268l-.082.4h-.99a.3.3,0,0,0-.3.3v.157a.3.3,0,0,0,.3.3h.992l.085.395a3.765,3.765,0,0,0,.535,1.261l.22.339-.71.713a.3.3,0,0,0-.089.212.3.3,0,0,0,.089.214l.109.109a.3.3,0,0,0,.426,0l.712-.711.339.222a3.7,3.7,0,0,0,1.26.534l.4.083v.995a.3.3,0,0,0,.3.3h.157a.3.3,0,0,0,.3-.3v-.995l.4-.083a3.694,3.694,0,0,0,1.261-.534l.34-.222.71.711a.309.309,0,0,0,.425,0l.113-.112a.3.3,0,0,0,0-.423l-.712-.714.221-.339a3.736,3.736,0,0,0,.535-1.261l.084-.395h.993a.3.3,0,0,0,.3-.3v-.157a.3.3,0,0,0-.3-.3M17.8,16.453A2.351,2.351,0,1,1,20.148,14.1,2.35,2.35,0,0,1,17.8,16.453" fill="#43a047" fill-rule="evenodd"/>
    </g>
  </g>
</svg>
