<svg id="Group_10" data-name="Group 10" xmlns="http://www.w3.org/2000/svg" width="22.62" height="20.05" viewBox="0 0 22.62 20.05">
  <path id="Path_78" data-name="Path 78" d="M9.45,0A5.29,5.29,0,1,1,4.16,5.29,5.292,5.292,0,0,1,9.45,0Z" fill="#43a047" fill-rule="evenodd"/>
  <path id="Path_79" data-name="Path 79" d="M17.08,19.07V16.03H14.93a1.55,1.55,0,0,1,0-3.1h.72A9.44,9.44,0,0,0,0,20.04c6.72-.02,11.28.03,17.45,0a1.468,1.468,0,0,1-.37-.98Z" fill="#43a047" fill-rule="evenodd"/>
  <path id="Path_80" data-name="Path 80" d="M22.62,14.47a.555.555,0,0,0-.55-.55H19.05v-3.3a.49.49,0,0,0-.98,0v3.3H14.92a.55.55,0,1,0,0,1.1h3.15v4.04a.49.49,0,0,0,.98,0V15.02h3.02a.555.555,0,0,0,.55-.55Z" fill="#43a047" fill-rule="evenodd"/>
</svg>
