<svg xmlns="http://www.w3.org/2000/svg" viewBox="0 0 409.98 173.84"><defs><style>.cls-1{isolation:isolate;}.cls-2{fill:#fff;}.cls-10,.cls-3{fill:#129b3b;}.cls-4{fill:#008360;}.cls-5{fill:#b2cf58;}.cls-11,.cls-6,.cls-7{fill:#dfc44a;}.cls-6,.cls-7,.cls-8{stroke:#129b3b;}.cls-6,.cls-7{stroke-linecap:round;stroke-width:1.5px;}.cls-6,.cls-7,.cls-9{stroke-linejoin:round;}.cls-7{mix-blend-mode:screen;opacity:0.25;}.cls-8,.cls-9{fill:none;}.cls-9{stroke:#fff;stroke-width:3px;}.cls-10{font-size:41.73px;font-family:Arial-BoldItalicMT, Arial;font-weight:700;font-style:italic;}.cls-12{fill:#595757;}</style></defs><g class="cls-1"><g id="圖層_2" data-name="圖層 2"><g id="圖層_1-2" data-name="圖層 1"><polygon class="cls-2" points="0.33 35.84 12.92 33.48 75.59 9.7 89.6 10.24 89.95 18 103.66 20.49 103.93 26.69 117.87 30.85 12.91 52.84 0.33 35.84"/><path class="cls-3" d="M117.87,161.85a12,12,0,0,1-11.89,12H11.89A11.94,11.94,0,0,1,0,161.85V52.31c0-6.62,5.32-2,11.89-2H106c6.56,0,11.89-4.62,11.89,2Z"/><path class="cls-2" d="M21.76,164.85l1.11-.09a2.51,2.51,0,0,0,.37,1.1,1.93,1.93,0,0,0,.89.69,3.34,3.34,0,0,0,1.36.27,3.13,3.13,0,0,0,1.19-.2,1.67,1.67,0,0,0,.76-.55,1.29,1.29,0,0,0,.25-.77,1.18,1.18,0,0,0-.24-.73,1.77,1.77,0,0,0-.8-.52,15.64,15.64,0,0,0-1.58-.43,7.5,7.5,0,0,1-1.71-.57,2.3,2.3,0,0,1-.95-.83,2,2,0,0,1-.32-1.11,2.35,2.35,0,0,1,.38-1.27,2.39,2.39,0,0,1,1.12-.89,4.12,4.12,0,0,1,1.63-.31A4.52,4.52,0,0,1,27,159a2.53,2.53,0,0,1,1.16.94,2.73,2.73,0,0,1,.44,1.41l-1.14.08a1.81,1.81,0,0,0-.61-1.26,2.45,2.45,0,0,0-1.55-.43,2.47,2.47,0,0,0-1.55.39,1.18,1.18,0,0,0-.49.95,1,1,0,0,0,.35.79,4.43,4.43,0,0,0,1.76.63,11.06,11.06,0,0,1,2,.58,2.62,2.62,0,0,1,1.15.9,2.21,2.21,0,0,1,.38,1.27,2.43,2.43,0,0,1-.41,1.34,2.64,2.64,0,0,1-1.17,1,4.12,4.12,0,0,1-1.71.35,5.19,5.19,0,0,1-2-.35,2.81,2.81,0,0,1-1.28-1.07A3.05,3.05,0,0,1,21.76,164.85Z"/><path class="cls-2" d="M30.33,167.72v-6.47h1v.91a2.33,2.33,0,0,1,.8-.76,2.24,2.24,0,0,1,1.15-.3,2.13,2.13,0,0,1,1.18.31,1.6,1.6,0,0,1,.65.83,2.34,2.34,0,0,1,2-1.14,2,2,0,0,1,1.49.54,2.29,2.29,0,0,1,.52,1.64v4.44H38v-4.07a3.12,3.12,0,0,0-.1-1,.92.92,0,0,0-.39-.46,1.21,1.21,0,0,0-.66-.18,1.54,1.54,0,0,0-1.14.45,2,2,0,0,0-.45,1.46v3.75h-1.1v-4.2a1.9,1.9,0,0,0-.26-1.09,1,1,0,0,0-.88-.37,1.64,1.64,0,0,0-.86.24,1.38,1.38,0,0,0-.57.72,4.22,4.22,0,0,0-.17,1.35v3.35Z"/><path class="cls-2" d="M45,166.91a3.81,3.81,0,0,1-1.16.74,3.51,3.51,0,0,1-1.22.21,2.4,2.4,0,0,1-1.65-.51,1.69,1.69,0,0,1-.57-1.33,1.81,1.81,0,0,1,.21-.87,1.93,1.93,0,0,1,.57-.63,2.7,2.7,0,0,1,.79-.36,7.27,7.27,0,0,1,1-.16,10.18,10.18,0,0,0,2-.38c0-.15,0-.24,0-.29a1.22,1.22,0,0,0-.32-1,1.89,1.89,0,0,0-1.26-.37,2,2,0,0,0-1.15.27,1.68,1.68,0,0,0-.55,1l-1.08-.13A2.69,2.69,0,0,1,41,162a2.16,2.16,0,0,1,1-.65,4.16,4.16,0,0,1,1.47-.24,3.84,3.84,0,0,1,1.35.2,1.79,1.79,0,0,1,.76.49,1.74,1.74,0,0,1,.35.75,7.25,7.25,0,0,1,0,1V165a14.77,14.77,0,0,0,.07,1.93,2.32,2.32,0,0,0,.26.78H45.17A2.41,2.41,0,0,1,45,166.91Zm-.1-2.43a8,8,0,0,1-1.79.41,4,4,0,0,0-1,.22,1,1,0,0,0-.43.36.85.85,0,0,0-.16.52.94.94,0,0,0,.34.73,1.47,1.47,0,0,0,1,.29,2.38,2.38,0,0,0,1.14-.28,1.73,1.73,0,0,0,.73-.76,2.56,2.56,0,0,0,.18-1.09Z"/><path class="cls-2" d="M47.65,167.72v-6.47h1v1a2.63,2.63,0,0,1,.69-.91,1.2,1.2,0,0,1,.71-.23,2.11,2.11,0,0,1,1.12.36l-.39,1a1.58,1.58,0,0,0-.8-.22,1.07,1.07,0,0,0-.64.21,1.29,1.29,0,0,0-.41.6,4.65,4.65,0,0,0-.18,1.28v3.38Z"/><path class="cls-2" d="M54.22,166.73l.14,1a4.44,4.44,0,0,1-.83.1,2,2,0,0,1-.93-.19,1.11,1.11,0,0,1-.46-.5,3.88,3.88,0,0,1-.13-1.29V162.1H51.2v-.86H52v-1.6L53.1,159v2.26h1.12v.86H53.1v3.77a1.87,1.87,0,0,0,.06.61.48.48,0,0,0,.19.21.8.8,0,0,0,.38.08A3.29,3.29,0,0,0,54.22,166.73Z"/><path class="cls-2" d="M58.91,167.72V158.8h4a5.29,5.29,0,0,1,1.81.24,2,2,0,0,1,1,.85,2.54,2.54,0,0,1,.37,1.35,2.28,2.28,0,0,1-.61,1.6,3.17,3.17,0,0,1-1.9.83,2.92,2.92,0,0,1,.71.44,6.35,6.35,0,0,1,1,1.19l1.54,2.42H65.29l-1.18-1.85c-.35-.54-.63-1-.85-1.23a3.34,3.34,0,0,0-.6-.6,2.13,2.13,0,0,0-.54-.24,3.5,3.5,0,0,0-.66,0H60.09v4Zm1.18-5h2.54a3.63,3.63,0,0,0,1.27-.17,1.31,1.31,0,0,0,.68-.53,1.37,1.37,0,0,0,.24-.8,1.32,1.32,0,0,0-.46-1,2.12,2.12,0,0,0-1.44-.41H60.09Z"/><path class="cls-2" d="M72.18,165.63l1.13.14a2.8,2.8,0,0,1-1,1.55,3,3,0,0,1-1.85.54,3,3,0,0,1-2.25-.87,3.38,3.38,0,0,1-.83-2.45,3.56,3.56,0,0,1,.84-2.53,2.86,2.86,0,0,1,2.18-.91,2.78,2.78,0,0,1,2.12.89,3.53,3.53,0,0,1,.82,2.48c0,.06,0,.16,0,.29H68.51a2.47,2.47,0,0,0,.61,1.64,1.81,1.81,0,0,0,1.35.56,1.67,1.67,0,0,0,1-.32A2.09,2.09,0,0,0,72.18,165.63Zm-3.6-1.78h3.61a2.24,2.24,0,0,0-.41-1.21,1.7,1.7,0,0,0-1.36-.63,1.79,1.79,0,0,0-1.28.5A2,2,0,0,0,68.58,163.85Z"/><path class="cls-2" d="M78.93,166.91a3.81,3.81,0,0,1-1.16.74,3.47,3.47,0,0,1-1.22.21,2.43,2.43,0,0,1-1.65-.51,1.7,1.7,0,0,1-.58-1.33,1.81,1.81,0,0,1,.22-.87,1.93,1.93,0,0,1,.57-.63,2.65,2.65,0,0,1,.8-.36,7.07,7.07,0,0,1,1-.16,10.18,10.18,0,0,0,2-.38c0-.15,0-.24,0-.29a1.22,1.22,0,0,0-.32-1,1.89,1.89,0,0,0-1.26-.37,2,2,0,0,0-1.15.27,1.68,1.68,0,0,0-.55,1l-1.08-.13A2.69,2.69,0,0,1,75,162a2.14,2.14,0,0,1,1-.65,4.12,4.12,0,0,1,1.47-.24,3.92,3.92,0,0,1,1.35.2,1.92,1.92,0,0,1,.76.49,1.85,1.85,0,0,1,.34.75,5.93,5.93,0,0,1,0,1V165a14.77,14.77,0,0,0,.07,1.93,2.56,2.56,0,0,0,.26.78H79.15A2.19,2.19,0,0,1,78.93,166.91Zm-.09-2.43a8.23,8.23,0,0,1-1.8.41,4,4,0,0,0-1,.22,1,1,0,0,0-.43.36.91.91,0,0,0-.15.52,1,1,0,0,0,.33.73,1.47,1.47,0,0,0,1,.29,2.35,2.35,0,0,0,1.14-.28,1.73,1.73,0,0,0,.73-.76,2.56,2.56,0,0,0,.18-1.09Z"/><path class="cls-2" d="M85.82,167.72v-.82a2,2,0,0,1-1.81,1,2.56,2.56,0,0,1-1.42-.42,2.86,2.86,0,0,1-1-1.19,4.09,4.09,0,0,1-.36-1.75,4.49,4.49,0,0,1,.33-1.76,2.49,2.49,0,0,1,1-1.21A2.59,2.59,0,0,1,84,161.1a2.19,2.19,0,0,1,1,.25,2.3,2.3,0,0,1,.74.64V158.8h1.1v8.92Zm-3.47-3.23a2.81,2.81,0,0,0,.53,1.86,1.57,1.57,0,0,0,1.24.61,1.55,1.55,0,0,0,1.23-.59,2.73,2.73,0,0,0,.5-1.79,3.07,3.07,0,0,0-.51-2,1.6,1.6,0,0,0-1.27-.62,1.51,1.51,0,0,0-1.22.6A2.9,2.9,0,0,0,82.35,164.49Z"/><path class="cls-2" d="M88.58,160.05V158.8h1.09v1.25Zm0,7.67v-6.47h1.09v6.47Z"/><path class="cls-2" d="M91.35,167.72v-6.47h1v.92a2.33,2.33,0,0,1,2-1.07,2.74,2.74,0,0,1,1.08.22,1.68,1.68,0,0,1,.73.55,2.28,2.28,0,0,1,.34.81,6.38,6.38,0,0,1,.06,1.07v4H95.5v-3.93a2.8,2.8,0,0,0-.13-1,1,1,0,0,0-.45-.53,1.46,1.46,0,0,0-.76-.2,1.8,1.8,0,0,0-1.21.44,2.2,2.2,0,0,0-.51,1.69v3.53Z"/><path class="cls-2" d="M98.08,168.25l1.07.15a1,1,0,0,0,.37.73,1.8,1.8,0,0,0,1.12.31,2,2,0,0,0,1.19-.3,1.58,1.58,0,0,0,.56-.85,7.1,7.1,0,0,0,.08-1.41,2.27,2.27,0,0,1-1.8.84,2.43,2.43,0,0,1-2.07-1,3.69,3.69,0,0,1-.74-2.31,4.35,4.35,0,0,1,.34-1.71,2.63,2.63,0,0,1,2.48-1.64,2.34,2.34,0,0,1,1.9.94v-.79h1v5.59a5.16,5.16,0,0,1-.31,2.14,2.18,2.18,0,0,1-1,1,3.29,3.29,0,0,1-1.64.37,3.16,3.16,0,0,1-1.87-.52A1.81,1.81,0,0,1,98.08,168.25Zm.91-3.88a2.78,2.78,0,0,0,.51,1.86,1.62,1.62,0,0,0,1.27.59,1.64,1.64,0,0,0,1.28-.58,2.74,2.74,0,0,0,.51-1.83,2.66,2.66,0,0,0-.53-1.79,1.65,1.65,0,0,0-1.28-.61,1.57,1.57,0,0,0-1.24.6A2.57,2.57,0,0,0,99,164.37Z"/><path class="cls-3" d="M.33,35.84l9.33,10s51.6-13.65,108.21-15h0v29.3H0Z"/><path class="cls-4" d="M12.92,33.48,75.59,9.7,75.15,0S36.53,22.71,12.92,33.48Z"/><path class="cls-3" d="M20.39,35.48S84.53,18.62,90,18l-.35-7.76S31.48,31.48,20.39,35.48Z"/><path class="cls-5" d="M25.59,38.74S93,26,103.93,26.69l-.27-6.2S32.83,35.69,25.59,38.74Z"/><path class="cls-6" d="M12.84,72.69c-.45-2.1,1.32-4,1.38-4.47a7,7,0,0,1,3-4.49c2.65-2.06,5.25-4.21,7.82-6.35,1.75-1.46,3.38-3.63,5.56-3.93a8.27,8.27,0,0,0,1.65-.2c.88-.36,1.58-1.51,2.35-2.08a5.72,5.72,0,0,1,2.87-1.06,43.15,43.15,0,0,0,6.07-1.62,60.9,60.9,0,0,1,6.29-1.84,31.8,31.8,0,0,1,7-.44c3.13-.05,6.19-.45,9.31-.4a24.29,24.29,0,0,1,4.43.35c2.52.48,4.7,2.13,7.31,2.63,1.46.28,2.95.5,4.42.81a7.27,7.27,0,0,1,2.57.7c.94.62,1.8,1.34,2.75,2,2.34,1.6,4,4,6.24,5.82,1.42,1.17,3.41,1.93,4.75,3a16.87,16.87,0,0,0,2.74,2.08c1.12.57,2.63.8,3.57,1.74a22.34,22.34,0,0,1,2.27,3.45,25.74,25.74,0,0,1,1.45,2.18c.42.76.63,1.55,1,2.34.63,1.38,1.17,1.93.4,3s-.28,1,.52,2.3a10.44,10.44,0,0,1,.84,2.68c.51,1.51,1.57,2.92,2,4.39a37.61,37.61,0,0,1,.78,4.71c.4,2.39,1.29,4.9,1.39,7.25a5.82,5.82,0,0,1,0,1.82c-.25.67-1,1-1.35,1.72-.63,1.34-1.26,3.39-2.45,4.32-.66.51-.88.07-1.9.06a1.35,1.35,0,0,0-1.55,1.18c-.33,1.44.1,3.25,0,4.76a7.32,7.32,0,0,1-2.89,5.08c-.79.58-1.83.59-2.54,1.24-.86.77-1.42,1.84-2.43,2.46a29.58,29.58,0,0,1-4,1.89,9.9,9.9,0,0,1-3,1c-.82.05-1.7-.2-2.53-.17-2.5.06-4.34,1.14-7,.51A6.47,6.47,0,0,1,81.46,122c-1.42-1.16-1-2.22-1.36-3.69a17.88,17.88,0,0,0-2.78-5.84c-1.91-2.65.45-4.87.63-7.44.21-3-2.57-4.65-4.08-7a7.79,7.79,0,0,1-1.29-3.34c0-.86.88-1.17.82-2-.14-1.86-2.8-1.21-3.88-1.72-.62-.29-1-1.3-1.5-1.84A15,15,0,0,0,65.77,87a16.81,16.81,0,0,0-3.09-1.54A3.21,3.21,0,0,0,60.53,85c-1.09.25-2.38,1.65-3.32,2.31-1.23.86-2.42,1.8-3.6,2.75a8.92,8.92,0,0,0-2,2.31c-.42.74-.54,1.79-1.25,2.35C48.05,96.55,49,93,48.63,92c-.28-.75-1-.35-1.69-1s-.75-1.86-1.39-2.42l-.24-.39c-.93.19-1.64,2-2.15,2.77a8.74,8.74,0,0,1-1.88,2.19c-.7.51-1.5.69-2.25,1.14s-1,1-1.6,1.93c-.92,1.49-2,.55-3.29,1.38-.64.4-.72,1-1.47,1.25a4.39,4.39,0,0,1-2.53-.38,11.13,11.13,0,0,0-5,.15,11.5,11.5,0,0,1-6-.08,25,25,0,0,0-4.95-.46c-2.63-.16-3.53-2.93-3.52-5.36,0-1.46,0-2.9-.12-4.32-.09-1.19-.5-2.32-.52-3.51,0,0-.81-2,1.91-4.37s.73-.34-.18-1.75C11.26,78.07,13.36,75,12.84,72.69Z"/><path class="cls-7" d="M12.84,72.69c-.45-2.1,1.32-4,1.38-4.47a7,7,0,0,1,3-4.49c2.65-2.06,5.25-4.21,7.82-6.35,1.75-1.46,3.38-3.63,5.56-3.93a8.27,8.27,0,0,0,1.65-.2c.88-.36,1.58-1.51,2.35-2.08a5.72,5.72,0,0,1,2.87-1.06,43.15,43.15,0,0,0,6.07-1.62,60.9,60.9,0,0,1,6.29-1.84,31.8,31.8,0,0,1,7-.44c3.13-.05,6.19-.45,9.31-.4a24.29,24.29,0,0,1,4.43.35c2.52.48,4.7,2.13,7.31,2.63,1.46.28,2.95.5,4.42.81a7.27,7.27,0,0,1,2.57.7c.94.62,1.8,1.34,2.75,2,2.34,1.6,4,4,6.24,5.82,1.42,1.17,3.41,1.93,4.75,3a16.87,16.87,0,0,0,2.74,2.08c1.12.57,2.63.8,3.57,1.74a22.34,22.34,0,0,1,2.27,3.45,25.74,25.74,0,0,1,1.45,2.18c.42.76.63,1.55,1,2.34.63,1.38,1.17,1.93.4,3s-.28,1,.52,2.3a10.44,10.44,0,0,1,.84,2.68c.51,1.51,1.57,2.92,2,4.39a37.61,37.61,0,0,1,.78,4.71c.4,2.39,1.29,4.9,1.39,7.25a5.82,5.82,0,0,1,0,1.82c-.25.67-1,1-1.35,1.72-.63,1.34-1.26,3.39-2.45,4.32-.66.51-.88.07-1.9.06a1.35,1.35,0,0,0-1.55,1.18c-.33,1.44.1,3.25,0,4.76a7.32,7.32,0,0,1-2.89,5.08c-.79.58-1.83.59-2.54,1.24-.86.77-1.42,1.84-2.43,2.46a29.58,29.58,0,0,1-4,1.89,9.9,9.9,0,0,1-3,1c-.82.05-1.7-.2-2.53-.17-2.5.06-4.34,1.14-7,.51A6.47,6.47,0,0,1,81.46,122c-1.42-1.16-1-2.22-1.36-3.69a17.88,17.88,0,0,0-2.78-5.84c-1.91-2.65.45-4.87.63-7.44.21-3-2.57-4.65-4.08-7a7.79,7.79,0,0,1-1.29-3.34c0-.86.88-1.17.82-2-.14-1.86-2.8-1.21-3.88-1.72-.62-.29-1-1.3-1.5-1.84A15,15,0,0,0,65.77,87a16.81,16.81,0,0,0-3.09-1.54A3.21,3.21,0,0,0,60.53,85c-1.09.25-2.38,1.65-3.32,2.31-1.23.86-2.42,1.8-3.6,2.75a8.92,8.92,0,0,0-2,2.31c-.42.74-.54,1.79-1.25,2.35C48.05,96.55,49,93,48.63,92c-.28-.75-1-.35-1.69-1s-.75-1.86-1.39-2.42l-.24-.39c-.93.19-1.64,2-2.15,2.77a8.74,8.74,0,0,1-1.88,2.19c-.7.51-1.5.69-2.25,1.14s-1,1-1.6,1.93c-.92,1.49-2,.55-3.29,1.38-.64.4-.72,1-1.47,1.25a4.39,4.39,0,0,1-2.53-.38,11.13,11.13,0,0,0-5,.15,11.5,11.5,0,0,1-6-.08,25,25,0,0,0-4.95-.46c-2.63-.16-3.53-2.93-3.52-5.36,0-1.46,0-2.9-.12-4.32-.09-1.19-.5-2.32-.52-3.51,0,0-.81-2,1.91-4.37s.73-.34-.18-1.75C11.26,78.07,13.36,75,12.84,72.69Z"/><path class="cls-8" d="M20,99c3.36-2.56,6.32-3.85,6.6-8.19s-1.68-8-2.21-12.07c-.8-6.06,4.58-12.35,10.75-13.49,2.3-.46,9.65-1.24,8.79,3"/><path class="cls-8" d="M38.56,64.64c-1-3.1,2-6.55,5.18-7.27"/><path class="cls-8" d="M32.29,74.5c0,4.87.37,8.39,2.73,12.46,1,1.69,3.56,6.68,6.13,6.38"/><path class="cls-8" d="M39.11,71.2c2.69,1.47,7.42,3,10.5.83,3.7-2.67,4.58-9,.8-11.36"/><path class="cls-8" d="M49.67,72.51c1.4.09,1.32,2.22.81,3.17-.95,1.78-3.13,1.88-4.64,2.78a9.85,9.85,0,0,0-4.56,6.42c-.31,1.68-.35,3.63.73,4.94.61.74,1,.58,1.91,1.32"/><path class="cls-8" d="M25.3,73.38c-6.76,2.09-6.78-6.13-8.6-9.52"/><path class="cls-8" d="M10.33,90.44c2.72,1,10.93-.16,10.76-4.71"/><path class="cls-8" d="M17.25,89.85c-1.19-3.89-.62-11.54,3.47-14.79"/><path class="cls-8" d="M58.57,45.91c-1.73,1.61-3.27,6-3.15,8.39.17,3.74,4.24,6.14,6.06,9.31a28.47,28.47,0,0,1,3.09,6.5c.73,2.59.48,5.18.5,7.84,0,1.85-.36,6.88-3.16,7.07"/><path class="cls-8" d="M55.42,54.74c2.71-3.06,10.79-7.33,12.41-1.44.51,1.83-.1,3.85,2.07,5,1.1.59,3,.28,4.13,0,3-.67,3.37-2.42,4-5"/><path class="cls-8" d="M65.26,75.2c1.63,0,3,.2,4.5-.42,2.43-1,5.13-4.13,5.15-6.79"/><path class="cls-8" d="M70.08,62.79c-.17,2.6,2.93,4.9,5.2,5.22,3.11.42,5.55-.52,7.22-2.9"/><path class="cls-8" d="M56.34,87.43c-2.76-.11-4.73-8.69-1.85-10"/><path class="cls-8" d="M86.75,51.92c.09,2.35-.28,4.66-.19,7,.13,3.22,1.48,4.77,3.53,7.38,3,3.88,5.17,12.33.42,15-1.84,1-4.59.14-6.73,0C81,81.1,78.9,81.63,77,83.68c-2.83,3-6.62,4.07-4.84,8.14"/><path class="cls-8" d="M93.58,76.86c7.53,1,13.37,6.59,13.21,14.29"/><path class="cls-8" d="M102.21,96.22c2.62-2.31,1.7-6,6.34-5.43,2,.24,2.68.64,3.66,2.56.73,1.46,1.2,4.21,3.32,4.13"/><path class="cls-8" d="M85.64,123c-5.41-.17-2.26-15.12-1.29-17.74.78-2.1,2.07-2.58,3.59-4.1,1.94-2,2.63-4.39,3-7.16.51-4.14-.08-6.93-3.89-9.7-1.55-1.14-3-2.3-4.89-2.56"/><path class="cls-8" d="M96.34,121.4c-1.58-1.68-2.54-6.72-2.75-8.82s-.56-5.55.85-7c1.2-1.24,7.39-2,5.21-5"/><path class="cls-8" d="M95.79,93.79c.67,2.77.46,4.89,3.47,6.57s6.29,2.13,8.81.7"/><path class="cls-8" d="M87.86,100.66c-4-1.3-5.81-6.6-5.54-10.18"/><path class="cls-8" d="M91.74,70.18c3.26.88,4.67-2.87,4.42-5.48"/><path class="cls-8" d="M91,80.64c-1.79.58-4.36-1.74-5.5-3.13s-1-2.88-1-4.54"/><path class="cls-8" d="M94.32,115.21c-4.07-.56-6.27-1.2-8.68-4.76"/><path class="cls-2" d="M39.74,117a15.24,15.24,0,0,1-2.06,8.41,6.8,6.8,0,0,1-6.08,3.16v-3.77q4,0,4-7.8h-4v-8.14h8.14Z"/><path class="cls-2" d="M70,117A15.24,15.24,0,0,1,68,125.44a6.8,6.8,0,0,1-6.08,3.16v-3.77q4,0,4-7.8h-4v-8.14H70Z"/><polyline class="cls-9" points="39.16 143.68 51.14 150.67 67.12 140.18"/><text class="cls-10" transform="translate(125.99 83.64)">S<tspan class="cls-11" x="27.83" y="0">mart</tspan><tspan x="118.28" y="0">R</tspan><tspan class="cls-11" x="148.42" y="0">eading</tspan></text><path class="cls-3" d="M130.65,112.42h5c.3,0,.44.11.44.32V120a3.29,3.29,0,0,0,.33,1.49,1.59,1.59,0,0,0,.66.74,4.41,4.41,0,0,0,1.48.54,17.08,17.08,0,0,0,2.51.17h6a52.54,52.54,0,0,0,8.22-.77.93.93,0,0,1,.41-.11c.15,0,.22,0,.22.11a17.67,17.67,0,0,0-.52,2.29.43.43,0,0,1-.47.46H141.12a12.82,12.82,0,0,1-2-.14,10.82,10.82,0,0,1-1.85-.44,7.31,7.31,0,0,1-1.48-.79,7.41,7.41,0,0,1-1-1.49l-.08-.11c-.13,0-.2,0-.22.06-1.86,1.37-2.88,2.3-3.05,2.77a.26.26,0,0,1-.25.14c-.13,0-.48-.46-1.07-1.4A1.21,1.21,0,0,1,130,123a20.59,20.59,0,0,0,4-2.42c.1-.07.14-.24.14-.52V114.2h-3.51c-.22,0-.34-.15-.34-.46v-.88C130.31,112.57,130.43,112.42,130.65,112.42ZM132,105.6a19.13,19.13,0,0,1,2.42,1.6,20.68,20.68,0,0,1,1.87,1.59.72.72,0,0,1-.14.25,8.49,8.49,0,0,1-.85,1.18,18,18,0,0,0-2.58-2.09,10.79,10.79,0,0,0-1.82-1.07,4.71,4.71,0,0,1,.89-1.27C131.83,105.66,131.91,105.6,132,105.6Zm.55-5.58a19.64,19.64,0,0,1,2.34,1.35c.72.49,1.33.95,1.84,1.37a.64.64,0,0,1-.14.25,8.49,8.49,0,0,1-.85,1.18,21,21,0,0,0-2.5-1.79,8.85,8.85,0,0,0-1.79-.93,5.37,5.37,0,0,1,.88-1.24C132.37,100.09,132.44,100,132.51,100Zm13.52-.8c1.41,0,2.12.12,2.12.34s-.1.39-.3.41-.28.23-.28.57v1.32h7.48c.14,0,.22.11.22.33v.88c0,.22-.08.33-.22.33h-4.76l1,.42c.27.11.41.22.41.35s-.08.19-.25.25a.28.28,0,0,0-.3.24,15.89,15.89,0,0,1-.88,2h3.49c.37,0,.55.12.55.36v13a1.46,1.46,0,0,1-.82,1.26,7,7,0,0,1-2,.44.33.33,0,0,1-.36-.3,4.83,4.83,0,0,0-.63-1.79s.06-.08.17-.08a3,3,0,0,0,1.43-.19.6.6,0,0,0,.27-.55V108.27h-5.06v2.06h4c.15,0,.22.12.22.36v.85c0,.24-.07.36-.22.36h-4V114h2.53c.3,0,.44.12.44.35v4.81c0,.22-.14.33-.44.33h-5.49v.77q0,.33-.45.33h-1.09a.29.29,0,0,1-.33-.33v-5.91c0-.23.11-.35.33-.35h2.52V111.9h-3.4c-.15,0-.22-.12-.22-.36v-.85c0-.24.07-.36.22-.36h3.4v-2.06h-4.61V121c0,.24-.15.36-.44.36h-1.1c-.3,0-.44-.12-.44-.36V107.06c0-.24.14-.36.44-.36h4c-.05-.12-.11-.26-.17-.38a9.87,9.87,0,0,0-1.2-2c0-.11.47-.4,1.43-.88a15,15,0,0,1,1.21,2c.22.43.4.85.57,1.27H148a7.93,7.93,0,0,0,.82-1.37,7.47,7.47,0,0,0,.75-1.87v-.06H138.23c-.15,0-.22-.11-.22-.33v-.88c0-.22.07-.33.22-.33h7.37v-2.3C145.6,99.34,145.74,99.22,146,99.22Zm-1.75,18.69h4.06v-2.39h-4.06Z"/><path class="cls-3" d="M161.67,104.5c1.39.3,2.09.51,2.09.66a.47.47,0,0,1-.33.44.92.92,0,0,0-.36.63,41.51,41.51,0,0,1-.69,4.89,19.12,19.12,0,0,1-.63,2.15c-.07.17-.14.25-.19.25a14.17,14.17,0,0,0-1.62-.39.26.26,0,0,1-.25-.27,22.77,22.77,0,0,0,1-3.11,29.42,29.42,0,0,0,.68-4.86C161.36,104.63,161.47,104.5,161.67,104.5Zm2.86-5.38c1.39,0,2.08.1,2.08.33s-.09.39-.27.41-.28.21-.28.57v24.21c0,.21-.14.31-.43.31h-1.1c-.3,0-.45-.1-.45-.31V99.45C164.08,99.22,164.23,99.12,164.53,99.12Zm3.62,5.16a.39.39,0,0,1,.33.11,39.33,39.33,0,0,1,1.43,4.1c0,.25-.06.39-.19.41a3.09,3.09,0,0,1-1.57.69c-.42-1.78-.82-3.25-1.21-4.43C166.94,105,167.35,104.69,168.15,104.28Zm4.18-2.94,1.9.69c.2.15.3.28.3.41a.29.29,0,0,1-.22.3c-.15,0-.24.13-.28.36-.16.88-.33,1.64-.49,2.28h3.63V99.56c0-.22.14-.34.43-.34,1.4,0,2.1.12,2.1.34s-.1.39-.28.41-.27.23-.27.57v4.84h6.15c.22,0,.33.15.33.44v.88c0,.31-.11.47-.33.47h-6.15v6.45h5.49c.22,0,.33.16.33.47V115c0,.31-.11.46-.33.46h-5.49v6.79h6.92c.22,0,.33.15.33.44v.91c0,.27-.11.41-.33.41H169.91c-.22,0-.33-.14-.33-.41v-.91c0-.29.11-.44.33-.44h7.26v-6.79h-5.39c-.22,0-.33-.15-.33-.46v-.86c0-.31.11-.47.33-.47h5.39v-6.45H173.1c-.26.86-.54,1.69-.85,2.47a13.45,13.45,0,0,1-1,2,2,2,0,0,1-.6-.08l-1.07-.42c-.13-.05-.2-.11-.2-.16a.28.28,0,0,1,.09-.22,15.81,15.81,0,0,0,1.45-3.33,23.29,23.29,0,0,0,.69-2.42,31.7,31.7,0,0,0,.6-3.46C172.23,101.42,172.27,101.34,172.33,101.34Z"/><path class="cls-3" d="M192.14,99.66h9.23c.3,0,.44.12.44.36v7.89c0,.24-.14.36-.44.36h-7.69v16.24c0,.24-.15.36-.44.36h-1.1c-.3,0-.44-.12-.44-.36V100C191.7,99.78,191.84,99.66,192.14,99.66Zm1.54,3.52h6.38v-2h-6.38Zm0,3.52h6.38v-2h-6.38Zm5.16,3.19,1.68.71c.28.11.41.24.41.39s-.13.15-.38.19-.56.07-.63.19a16.55,16.55,0,0,1-1.54,1.37h9.75a3,3,0,0,1-.46-.38,3.75,3.75,0,0,1-1-1.4.53.53,0,0,1-.08-.17h-4c-.22,0-.33-.15-.33-.46v-.86c0-.23.11-.35.33-.35h5.06c.29,0,.44.12.44.35a2,2,0,0,0,.33,1.16,2.79,2.79,0,0,0,.82.86,5,5,0,0,0,1.38.62c.42.13.88.24,1.37.34.13,0,.19,0,.19.08s-.08.12-.24.19c-.31.31-.61.63-.91,1a.77.77,0,0,1-.52.17,5.72,5.72,0,0,1-1.29-.47l-.47-.22v5.08c0,.22-.15.33-.44.33h-2.42v2.2c0,.74.44,1.1,1.32,1.1h1.1a.4.4,0,0,0,.36-.24,4.53,4.53,0,0,0,.13-1.32c0-.12,0-.17.06-.17a3.34,3.34,0,0,0,1.54.44q.33,0,.33.3a5.85,5.85,0,0,1-.6,2.23.85.85,0,0,1-.83.44h-3c-1.47,0-2.2-.56-2.2-1.68v-3.3h-2c0,.52,0,1-.08,1.38a5.17,5.17,0,0,1-.49,1.45,4,4,0,0,1-1,1.22,7.12,7.12,0,0,1-1.67,1,17.18,17.18,0,0,1-1.84.49.28.28,0,0,1-.3-.28,8.32,8.32,0,0,1-.72-1.07.56.56,0,0,1-.08-.27,17.58,17.58,0,0,0,2.2-.47,2.86,2.86,0,0,0,1-.58,1.86,1.86,0,0,0,.63-.68,3.2,3.2,0,0,0,.41-1,5.06,5.06,0,0,0,.09-1.1H198.3c-.3,0-.44-.11-.44-.33v-5.11c-.24.17-.47.31-.69.44a1.5,1.5,0,0,1-.52.17,1,1,0,0,1-.47-.17c-.39-.16-.74-.32-1.07-.47-.15,0-.22-.09-.22-.11s.05-.09.16-.16a13.13,13.13,0,0,0,2-1.29,5.85,5.85,0,0,0,1.46-1.43A.38.38,0,0,1,198.84,109.89Zm7.92,7V114.4h-6.92v2.52Zm-1.54-17.26h9.35c.36,0,.55.12.55.36v22.1a2.56,2.56,0,0,1-1,2.17,6.3,6.3,0,0,1-2.5.77.29.29,0,0,1-.33-.3,5.71,5.71,0,0,0-.66-1.79c0-.11.06-.17.19-.17,1.12,0,1.78-.1,2-.32a1.5,1.5,0,0,0,.36-1.1V108.27h-7.92c-.29,0-.44-.12-.44-.36V100C204.78,99.78,204.93,99.66,205.22,99.66Zm1.54,3.52h6.38v-2h-6.38Zm0,3.52h6.38v-2h-6.38Z"/><path class="cls-3" d="M221.19,103.84h8.46c.22,0,.33.15.33.44v.88c0,.3-.11.44-.33.44h-8.46c-.23,0-.34-.14-.34-.44v-.88C220.85,104,221,103.84,221.19,103.84ZM222,116h6.93c.29,0,.44.11.44.33V124c0,.22-.15.33-.44.33h-1.1a.29.29,0,0,1-.33-.33v-.88h-4v1.32c0,.24-.14.36-.44.36H222q-.33,0-.33-.36v-8A.29.29,0,0,1,222,116Zm.55-16.26h6.16c.22,0,.33.15.33.46v.86c0,.29-.11.43-.33.43H222.5c-.22,0-.33-.14-.33-.43v-.86C222.17,99.93,222.28,99.78,222.5,99.78Zm0,8h6.16c.22,0,.33.16.33.47v.85c0,.31-.11.47-.33.47H222.5c-.22,0-.33-.16-.33-.47v-.85C222.17,108,222.28,107.8,222.5,107.8Zm0,4h6.16q.33,0,.33.42v.9q0,.42-.33.42H222.5q-.33,0-.33-.42v-.9Q222.17,111.78,222.5,111.78Zm1,9.57h4v-3.63h-4Zm8.91-8.16h12.2c.3,0,.44.11.44.33v8.24c0,.22-.14.33-.44.33H242a13.41,13.41,0,0,0,1.48.82,18,18,0,0,0,2.53.86c.15.09.22.15.22.19s-.37.59-1.1,1.32l-.28,0a21.8,21.8,0,0,1-4.72-2.34c-.11-.07-.17-.12-.17-.16s.19-.31.58-.66h-4.12c.68.57,1,.9,1,1s-.09.19-.3.19-.54,0-.58.14A23.63,23.63,0,0,1,232,125.5a.49.49,0,0,1-.44-.22,2.31,2.31,0,0,0-.58-.69.41.41,0,0,1-.19-.3c0-.07.07-.13.22-.17a12.59,12.59,0,0,0,2.25-.87,9.63,9.63,0,0,0,1.92-1.16H232.4c-.3,0-.44-.11-.44-.33v-8.24C232,113.3,232.1,113.19,232.4,113.19ZM231.19,101h6.38V99.56c0-.15.1-.22.32-.22,1.33,0,2,.11,2,.32s-.07.37-.22.39-.22.18-.22.49V101h6.38c.15,0,.22.11.22.35V102c0,.32-.07.47-.22.47h-6.38v1.21h5.17c.15,0,.22.1.22.3v.66c0,.3-.07.44-.22.44H232.29c-.15,0-.22-.14-.22-.44V104c0-.2.07-.3.22-.3h5.28v-1.21h-6.38c-.15,0-.22-.15-.22-.47v-.63C231,101.1,231,101,231.19,101Zm.22,5.27h14.18c.29,0,.44.11.44.33v5.19c0,.21-.15.31-.44.31H231.41c-.3,0-.44-.1-.44-.31v-5.19C231,106.37,231.11,106.26,231.41,106.26Zm3.73,4.62v-3.41h-2.41v3.41Zm-1.32,4.94h9.35V114.5h-9.35Zm0,2.53h9.35V117h-9.35Zm9.35,2.42v-1.21h-9.35v1.21Zm-3.52-9.89v-3.41H237v3.41Zm4.62,0v-3.41h-2.75v3.41Z"/><path class="cls-12" d="M409.07,106.18a5.34,5.34,0,1,1-5.34-5.33A5.35,5.35,0,0,1,409.07,106.18Zm-5.34-6.24a6.24,6.24,0,1,0,6.25,6.24A6.25,6.25,0,0,0,403.73,99.94Z"/><path class="cls-12" d="M401,109.83v-7.3h3.24a4.17,4.17,0,0,1,1.49.2,1.65,1.65,0,0,1,.81.7,2.06,2.06,0,0,1,.3,1.1,1.86,1.86,0,0,1-.5,1.31,2.54,2.54,0,0,1-1.55.67,3.08,3.08,0,0,1,.58.37,4.7,4.7,0,0,1,.8,1l1.26,2h-1.21l-1-1.52c-.29-.43-.52-.77-.7-1a2.48,2.48,0,0,0-.49-.49,1.68,1.68,0,0,0-.44-.19,2.35,2.35,0,0,0-.54,0h-1.12v3.24Zm1-4.07H404a3.11,3.11,0,0,0,1-.14,1.09,1.09,0,0,0,.58-.44,1.18,1.18,0,0,0,.19-.66,1,1,0,0,0-.38-.85,1.78,1.78,0,0,0-1.19-.34h-2.31Z"/></g></g></g></svg>