<?xml version="1.0" encoding="UTF-8"?>
<svg id="_圖層_2" data-name="圖層 2" xmlns="http://www.w3.org/2000/svg" viewBox="0 0 47.87 46.85">
  <defs>
    <style>
      .cls-1 {
        fill: #fff;
      }
    </style>
  </defs>
  <g id="_圖層_2-2" data-name="圖層 2">
    <g>
      <path class="cls-1" d="M19.65,32.42h9.52s2.72-8.82,2.72-8.82l.05-.17-7.57-5.5-7.52,5.43,2.8,9.07ZM31.36,23.62l-2.56,8.31h-8.78s-2.59-8.39-2.59-8.39l6.94-5,6.99,5.08Z"/>
      <path class="cls-1" d="M9.92,20.95l5.34,17.34,18.19.03,5.32-17.22-14.47-10.51-14.39,10.36ZM32.72,37.31l-16.72-.03-4.91-15.95,13.22-9.52,13.3,9.67-4.89,15.83Z"/>
      <path class="cls-1" d="M44.14,15.2c-.88,0-1.67.32-2.31.82l-13.98-10.16c.42-.61.67-1.34.67-2.13,0-2.06-1.68-3.73-3.74-3.73s-3.73,1.68-3.73,3.73c0,.56.13,1.09.35,1.56l-15.15,10.9c-.67-.61-1.55-1-2.52-1-2.06,0-3.73,1.68-3.73,3.73s1.67,3.73,3.73,3.73c.18,0,.35-.03.52-.05l5.3,17.23c-1.16.63-1.96,1.85-1.96,3.27,0,2.06,1.68,3.74,3.74,3.74,1.69,0,3.1-1.14,3.56-2.68l18.64.03c.47,1.53,1.88,2.65,3.56,2.65,2.06,0,3.73-1.68,3.73-3.74,0-1.33-.71-2.5-1.76-3.16l5.36-17.31c1.93-.14,3.46-1.74,3.46-3.71s-1.67-3.73-3.73-3.73ZM37.65,39.44c-.18-.03-.37-.06-.56-.06-1.92,0-3.48,1.46-3.69,3.32l-18.38-.03c-.22-1.85-1.78-3.29-3.69-3.29-.02,0-.03,0-.05,0-.1,0-.19.02-.29.03l-5.32-17.29c.07-.05.15-.09.22-.14.96-.68,1.58-1.79,1.58-3.04,0-.24-.03-.47-.07-.7-.03-.18-.09-.34-.15-.51-.04-.11-.07-.21-.11-.31l15.16-10.91c.09.08.18.16.28.23.15.11.3.2.46.28.52.28,1.11.45,1.75.45.48,0,.93-.1,1.35-.26.18-.07.34-.16.5-.25.03-.02.06-.03.09-.05l14.13,10.27s-.04.07-.06.11c-.08.15-.14.31-.19.48-.12.37-.2.76-.2,1.17,0,1.62,1.05,3,2.5,3.51l-5.26,16.99Z"/>
    </g>
  </g>
</svg>