<?xml version="1.0" encoding="UTF-8"?>
<svg id="_圖層_2" data-name="圖層 2" xmlns="http://www.w3.org/2000/svg" viewBox="0 0 29.67 39.22">
  <defs>
    <style>
      .cls-1 {
        fill: #fff;
      }
    </style>
  </defs>
  <g id="_圖層_2-2" data-name="圖層 2">
    <g>
      <path class="cls-1" d="M29.66,8.44c0-.07-.02-.13-.04-.2,0-.03-.02-.05-.03-.08-.04-.08-.09-.16-.15-.23L21.73.23c-.07-.07-.15-.11-.23-.15-.02-.01-.05-.02-.07-.03-.07-.02-.13-.04-.2-.04-.02,0-.03,0-.05,0H.78c-.43,0-.78.35-.78.78v37.66c0,.43.35.78.78.78h28.11c.43,0,.78-.35.78-.78V8.49s0-.03,0-.05ZM1.56,1.56h18.84v4.65H5.76c-.43,0-.78.35-.78.78s.35.78.78.78h14.64v.72c0,.43.35.78.78.78h6.93v28.39H1.56V1.56Z"/>
      <path class="cls-1" d="M23.91,31.46H5.76c-.43,0-.78.35-.78.78s.35.78.78.78h18.15c.43,0,.78-.35.78-.78s-.35-.78-.78-.78Z"/>
      <path class="cls-1" d="M23.91,26.41H5.76c-.43,0-.78.35-.78.78s.35.78.78.78h18.15c.43,0,.78-.35.78-.78s-.35-.78-.78-.78Z"/>
      <path class="cls-1" d="M23.91,21.36H5.76c-.43,0-.78.35-.78.78s.35.78.78.78h18.15c.43,0,.78-.35.78-.78s-.35-.78-.78-.78Z"/>
      <path class="cls-1" d="M23.91,16.31H5.76c-.43,0-.78.35-.78.78s.35.78.78.78h18.15c.43,0,.78-.35.78-.78s-.35-.78-.78-.78Z"/>
      <path class="cls-1" d="M23.91,11.26H5.76c-.43,0-.78.35-.78.78s.35.78.78.78h18.15c.43,0,.78-.35.78-.78s-.35-.78-.78-.78Z"/>
    </g>
  </g>
</svg>