<?xml version="1.0" encoding="UTF-8"?>
<svg id="_圖層_2" xmlns="http://www.w3.org/2000/svg" version="1.1" viewBox="0 0 31.2 37.5">
  <!-- Generator: Adobe Illustrator 29.4.0, SVG Export Plug-In . SVG Version: 2.1.0 Build 152)  -->
  <defs>
    <style>
      .st0 {
        fill: #fff;
      }
    </style>
  </defs>
  <g id="_圖層_2-2">
    <path class="st0" d="M26.4,18.4V4.2h-4.9V0S5.5,2.5,0,4.4v30.1h0v.8h17.5c2.7.9,4.3,2.2,4.3,2.2,3.5-3.5,9.4-3,9.4-3v-16.7c-1.6,0-3.3.2-4.8.6h0ZM2,6.2h22.2v12.9c-1.2.5-2,.9-2,.9h-1.3c-3.8-2.9-8.6-2.2-8.6-2.2v15.9c0,0,0,.2,0,.2H2V6.2ZM20.7,33.8v.9s0,0-.2-.1c-.3-.2-.8-.5-1.5-.8-.1,0-.2-.1-.3-.2-1.5-.7-3.4-1.4-4.4-.8v-12.9s4.4-.2,6.5,2.3v11.6h0ZM29,32.9c-.6-.3-1.6-.2-2.6,0-.8.2-1.5.6-2.2.9-.6.3-1,.5-1.3.7-.2.1-.4.2-.4.2v-12.5c.5-.6,1.1-1,1.8-1.4.7-.4,1.4-.6,2.1-.7,1.4-.3,2.6-.2,2.6-.2v12.9h0Z"/>
  </g>
</svg>