<?xml version="1.0" encoding="utf-8"?>
<!-- Generator: Adobe Illustrator 26.3.1, SVG Export Plug-In . SVG Version: 6.00 Build 0)  -->
<svg version="1.1" id="圖層_1" xmlns="http://www.w3.org/2000/svg" xmlns:xlink="http://www.w3.org/1999/xlink" x="0px" y="0px"
	 viewBox="0 0 1361.9 150" style="enable-background:new 0 0 1361.9 150;" xml:space="preserve">
<style type="text/css">
	.st0{fill:#2E3233;}
	.st1{fill:#595757;}
	.st2{fill:#0D9A3B;}
	.st3{fill:#DFC44A;}
</style>
<g>
	<g id="矩形_32">
		<g>
			<rect x="625" y="36.4" class="st0" width="2.9" height="77.2"/>
		</g>
	</g>
	<g>
		<g>
			<g>
				<path class="st1" d="M585,108.5c0,7-5.7,12.7-12.7,12.7s-12.7-5.7-12.7-12.7s5.7-12.7,12.7-12.7S585,101.5,585,108.5z
					 M572.3,93.7c-8.2,0-14.9,6.7-14.9,14.9s6.7,14.9,14.9,14.9s14.9-6.7,14.9-14.9S580.5,93.7,572.3,93.7z"/>
			</g>
			<g>
				<path class="st1" d="M565.7,117.2V99.8h7.7c1.6,0,2.7,0.2,3.5,0.5s1.4,0.9,1.9,1.7c0.5,0.8,0.7,1.7,0.7,2.6
					c0,1.2-0.4,2.3-1.2,3.1c-0.8,0.8-2,1.4-3.7,1.6c0.6,0.3,1.1,0.6,1.4,0.9c0.7,0.6,1.3,1.4,1.9,2.3l3,4.7H578l-2.3-3.6
					c-0.7-1-1.2-1.8-1.7-2.4c-0.4-0.6-0.8-0.9-1.2-1.2c-0.3-0.2-0.7-0.4-1.1-0.5c-0.3-0.1-0.7-0.1-1.3-0.1h-2.7v7.7L565.7,117.2
					L565.7,117.2z M568,107.5h4.9c1.1,0,1.9-0.1,2.5-0.3c0.6-0.2,1.1-0.6,1.4-1c0.3-0.5,0.5-1,0.5-1.6c0-0.8-0.3-1.5-0.9-2
					c-0.6-0.5-1.5-0.8-2.8-0.8h-5.5v5.7H568z"/>
			</g>
		</g>
		<g>
			<g>
				<g>
					<g>
						<path class="st2" d="M0,43.1l12.2-0.6c0.2,3.9,0.8,6.5,2,7.8c1.9,2.2,5.3,3.3,10.4,3.3c4.2,0,7.3-0.7,9.1-2.2
							c1.9-1.5,2.8-3.3,2.8-5.4c0-1.8-0.8-3.4-2.3-4.7c-1.1-0.9-4.1-2.4-8.9-4.5c-4.9-2.1-8.4-3.8-10.6-5.2c-2.2-1.4-4-3.2-5.3-5.5
							c-1.3-2.2-1.9-4.9-1.9-7.9c0-5.2,1.9-9.6,5.7-13C17,1.7,22.5,0,29.7,0c7.3,0,13,1.7,17,5.1s6.2,8,6.6,13.6l-12.2,0.5
							c-0.3-3-1.4-5.2-3.2-6.8C36,10.8,33.3,10,29.7,10s-6.1,0.6-7.6,1.9c-1.5,1.2-2.3,2.8-2.3,4.7c0,1.8,0.7,3.3,2.1,4.4
							c1.4,1.2,4.5,2.8,9.2,4.9c7.2,3.1,11.7,5.6,13.7,7.5c2.9,2.8,4.4,6.5,4.4,10.9c0,5.5-2.2,10.2-6.5,14.1s-10.4,5.8-18.1,5.8
							c-5.3,0-10-0.9-13.9-2.7S4,57.2,2.4,54C0.6,50.9-0.1,47.3,0,43.1z"/>
						<path class="st3" d="M64.9,18.1h11.4l-1.1,5.4c4.5-4.3,9.2-6.5,14.1-6.5c3.4,0,6,0.7,7.8,2.1s3,3.4,3.5,5.8
							c1.6-2.3,3.8-4.1,6.7-5.7c2.9-1.5,5.9-2.3,9.1-2.3c3.6,0,6.4,1,8.4,2.9s3,4.5,3,7.7c0,1.5-0.5,4.2-1.3,8l-5.8,27.4h-12
							l5.7-27.4c0.7-3.4,1.1-5.4,1.2-5.8c0-1.3-0.4-2.2-1.1-3c-0.8-0.7-1.9-1.1-3.4-1.1c-3.1,0-5.8,1.6-8.2,4.8
							c-1.7,2.3-3.2,6.3-4.5,12.2L94.1,63h-12l5.7-27.2c0.6-3.1,1-5.2,1-6.1c0-1.2-0.4-2.2-1.2-2.9c-0.8-0.8-1.9-1.1-3.3-1.1
							c-1.3,0-2.7,0.4-4.1,1.2c-1.4,0.8-2.7,1.9-3.7,3.3c-1.1,1.4-2,3.2-2.7,5.3c-0.4,1-0.9,3.3-1.7,6.9l-4.5,20.7h-12L64.9,18.1z"
							/>
						<path class="st3" d="M150.2,30.8l-11.8-1c1.3-4,3.7-7.1,7-9.4c3.3-2.2,7.8-3.4,13.3-3.4c5.7,0,10,1.2,12.7,3.5
							s4.1,5.2,4.1,8.5c0,1.4-0.1,2.8-0.4,4.3c-0.2,1.5-1.1,5.5-2.5,12c-1.2,5.4-1.8,9.1-1.8,11.3c0,1.9,0.3,4,1,6.4h-11.7
							c-0.6-1.6-0.9-3.3-1-5.1c-1.8,2-3.8,3.5-6.1,4.6s-4.6,1.6-7,1.6c-3.7,0-6.8-1.2-9.2-3.7c-2.4-2.4-3.6-5.6-3.6-9.4
							c0-4.3,1.3-7.7,4-10.3s7.4-4.1,14.3-4.7c5.8-0.5,9.6-1.1,11.6-1.7c0.5-1.7,0.8-3.1,0.8-4.1c0-1.3-0.5-2.4-1.5-3.3
							s-2.6-1.3-4.6-1.3c-2.1,0-3.8,0.4-5.1,1.3C151.5,28,150.6,29.2,150.2,30.8z M161.5,42.1c-0.7,0.2-1.7,0.4-2.9,0.6
							c-6.1,0.7-10,1.8-11.9,3.3c-1.3,1-2,2.4-2,4.2c0,1.4,0.5,2.6,1.5,3.6s2.4,1.5,4,1.5c1.8,0,3.6-0.4,5.2-1.3
							c1.6-0.9,2.8-2.1,3.6-3.5s1.5-3.6,2.1-6.6L161.5,42.1z"/>
						<path class="st3" d="M189.9,18.1h11.4l-1.8,8.7c4.2-6.5,8.8-9.7,13.7-9.7c1.7,0,3.6,0.4,5.6,1.3l-4.7,9.9
							c-1.1-0.4-2.3-0.6-3.5-0.6c-2.1,0-4.2,0.8-6.4,2.4s-3.9,3.7-5.1,6.3c-1.2,2.6-2.4,6.8-3.6,12.6l-2.9,14.1h-12L189.9,18.1z"/>
						<path class="st3" d="M217.8,27.2l1.8-9.1h6l1.5-7.1L241,2.6l-3.2,15.6h7.2l-1.8,9.1H236l-4,19c-0.7,3.4-1.1,5.4-1.1,5.8
							c0,0.9,0.3,1.7,0.9,2.2c0.6,0.5,1.6,0.8,3.1,0.8c0.5,0,1.8-0.1,3.9-0.3l-1.9,9c-2.1,0.4-4.2,0.6-6.4,0.6
							c-4.3,0-7.3-0.8-9.3-2.5c-1.9-1.7-2.9-4-2.9-7c0-1.4,0.5-4.6,1.6-9.5l3.9-18.1h-6V27.2z"/>
						<path class="st2" d="M256.6,63.1h-12.8l13-61.9h27.5c4.7,0,8.4,0.5,11.1,1.5c2.6,1,4.8,2.8,6.4,5.3c1.6,2.6,2.4,5.7,2.4,9.4
							c0,5.3-1.6,9.6-4.7,13c-3.2,3.4-7.9,5.5-14.3,6.4c1.6,1.5,3.2,3.4,4.6,5.8c2.8,4.8,6,11.7,9.5,20.5h-13.7
							c-1.1-3.5-3.2-8.9-6.4-16.4c-1.7-4-3.6-6.7-5.6-8.1c-1.2-0.8-3.3-1.2-6.3-1.2h-5.2L256.6,63.1z M264,28.1h6.8
							c6.8,0,11.4-0.4,13.6-1.2c2.2-0.8,4-2.1,5.3-3.8c1.3-1.7,1.9-3.6,1.9-5.5c0-2.2-0.9-3.9-2.7-5.1c-1.1-0.7-3.6-1-7.3-1h-14
							L264,28.1z"/>
						<path class="st3" d="M349.8,44.4h-30.4c0,0.5,0,0.8,0,1.1c0,3,0.9,5.4,2.6,7.3c1.7,1.8,3.8,2.8,6.2,2.8c4,0,7.2-2.1,9.4-6.2
							l10.9,1.8c-2.1,4.4-4.9,7.6-8.5,9.8c-3.5,2.2-7.5,3.3-11.9,3.3c-6,0-10.9-1.9-14.7-5.7c-3.8-3.8-5.7-8.9-5.7-15.2
							c0-6.2,1.7-11.6,5.1-16.5c4.6-6.5,11.3-9.8,19.9-9.8c5.5,0,9.8,1.7,13.1,5.1c3.2,3.4,4.9,8.2,4.9,14.3
							C350.7,39.5,350.4,42.1,349.8,44.4z M339.7,37.1c0-0.5,0-1,0-1.2c0-3.3-0.7-5.9-2.2-7.5c-1.5-1.7-3.5-2.5-6-2.5
							s-4.8,1-6.7,2.9c-2,1.9-3.3,4.7-4,8.4L339.7,37.1L339.7,37.1z"/>
						<path class="st3" d="M371.6,30.8l-11.8-1c1.3-4,3.7-7.1,7-9.4c3.4-2.2,7.8-3.4,13.3-3.4c5.7,0,10,1.2,12.7,3.5
							s4.1,5.2,4.1,8.5c0,1.4-0.1,2.8-0.4,4.3c-0.2,1.5-1.1,5.5-2.5,12c-1.2,5.4-1.8,9.1-1.8,11.3c0,1.9,0.3,4,1,6.4h-11.7
							c-0.6-1.6-0.9-3.3-1-5.1c-1.8,2-3.8,3.5-6.1,4.6c-2.3,1.1-4.6,1.6-7,1.6c-3.7,0-6.8-1.2-9.2-3.7c-2.4-2.4-3.6-5.6-3.6-9.4
							c0-4.3,1.3-7.7,4-10.3s7.4-4.1,14.3-4.7c5.8-0.5,9.6-1.1,11.6-1.7c0.5-1.7,0.8-3.1,0.8-4.1c0-1.3-0.5-2.4-1.5-3.3
							s-2.6-1.3-4.6-1.3c-2.1,0-3.8,0.4-5.1,1.3C372.9,28,372.1,29.2,371.6,30.8z M383,42.1c-0.7,0.2-1.7,0.4-2.9,0.6
							c-6.1,0.7-10,1.8-11.9,3.3c-1.3,1-2,2.4-2,4.2c0,1.4,0.5,2.6,1.5,3.6s2.4,1.5,4,1.5c1.8,0,3.6-0.4,5.2-1.3
							c1.6-0.9,2.8-2.1,3.6-3.5c0.8-1.4,1.5-3.6,2.1-6.6L383,42.1z"/>
						<path class="st3" d="M444,63.1h-11.5l1-4.8c-2.2,2.1-4.4,3.6-6.5,4.5s-4.5,1.4-7.2,1.4c-4.7,0-8.4-1.6-11.3-4.8
							s-4.3-7.9-4.3-14.1c0-7.2,2.1-13.7,6.2-19.6c4.1-5.8,9.6-8.7,16.4-8.7c6.1,0,10.7,2.4,13.8,7.3l5-23.2h12L444,63.1z
							 M415.9,44.9c0,3.2,0.8,5.7,2.5,7.5c1.6,1.8,3.7,2.7,6.1,2.7c2.2,0,4.3-0.8,6.2-2.3c1.9-1.5,3.5-3.8,4.6-6.9
							c1.2-3.1,1.7-6.1,1.7-8.9c0-3.2-0.9-5.9-2.7-7.9c-1.8-2-3.8-3-6.1-3c-3.6,0-6.6,2-8.9,5.9C417.1,36.1,415.9,40.3,415.9,44.9z"
							/>
						<path class="st3" d="M464.9,18.1h12l-9.4,45h-12L464.9,18.1z M468.4,1.2h12l-2.3,10.9h-12L468.4,1.2z"/>
						<path class="st3" d="M489.1,18.1h11.5l-1.2,5.9c2.9-2.5,5.6-4.3,8.2-5.4c2.5-1.1,5.2-1.6,8-1.6c3.7,0,6.7,1.1,8.9,3.2
							s3.2,5,3.2,8.5c-0.1,1.6-0.6,4.5-1.6,8.9l-5.5,25.5h-12l5.5-25.4c0.8-3.8,1.2-6.1,1.3-6.8c0-1.6-0.5-2.8-1.4-3.7
							c-0.9-0.9-2.2-1.4-3.9-1.4c-1.8,0-3.8,0.7-6.1,2.2c-2.2,1.5-4,3.5-5.2,5.9c-1,1.8-2,5.3-3.2,10.7l-3.8,18.5h-12L489.1,18.1z"
							/>
						<path class="st3" d="M531.9,65.6l12.8,1.8c0,1.3,0.2,2.3,0.6,2.9c0.4,0.7,1.1,1.2,2,1.7s2.2,0.7,3.8,0.7
							c2.7,0,4.9-0.5,6.5-1.5c1.2-0.8,2.2-2.1,3-3.9c0.5-1.1,1.1-3.6,1.8-7.3l0.4-2.1c-4.4,3.5-9,5.2-13.6,5.2
							c-4.4,0-7.9-1.5-10.7-4.6s-4.2-7.6-4.2-13.6c0-5.3,1-10.1,2.9-14.5s4.6-7.7,8-10c3.4-2.2,7-3.4,10.5-3.4
							c2.9,0,5.6,0.8,8.1,2.4c2.4,1.6,4.4,3.8,5.7,6.6l1.7-7.9h11.4l-7.1,37.3c-1.3,6-2.4,10.4-3.3,13c-0.9,2.6-1.9,4.6-3.1,6.2
							c-1.1,1.5-2.6,2.8-4.3,3.9c-1.8,1-3.8,1.8-6.2,2.2c-2.4,0.5-5,0.7-7.8,0.7c-6.3,0-11-1.1-14.3-3.2c-3.2-2.2-4.8-5.8-4.8-10.8
							C531.8,66.8,531.9,66.2,531.9,65.6z M546.2,43.6c0,3.4,0.8,6,2.3,7.7c1.5,1.8,3.4,2.7,5.7,2.7c2.1,0,4.2-0.8,6.2-2.4
							c2-1.6,3.6-3.9,4.6-6.8c1.1-2.9,1.6-5.8,1.6-8.5c0-3.2-0.9-5.7-2.7-7.6s-3.8-2.9-6.1-2.9c-2.2,0-4.1,0.9-5.9,2.6
							c-1.8,1.7-3.3,4.3-4.5,7.9C546.7,39,546.2,41.4,546.2,43.6z"/>
					</g>
				</g>
			</g>
		</g>
		<g>
			<path class="st2" d="M4.3,122.8h10.5c0.6,0,0.9,0.2,0.9,0.7v15.1c0,1.3,0.3,2.4,0.7,3.1c0.3,0.7,0.8,1.2,1.4,1.5
				c0.9,0.5,1.9,0.9,3.1,1.1c1.5,0.2,3.3,0.3,5.2,0.3h12.4c4.8,0,10.5-0.5,17.1-1.6c0.3-0.2,0.6-0.2,0.9-0.2c0.3,0,0.5,0.1,0.5,0.2
				c-0.5,1.6-0.8,3.1-1.1,4.7c0,0.6-0.4,1-1,1H26c-1.4,0-2.8-0.1-4.1-0.3c-1.3-0.2-2.6-0.5-3.8-0.9c-1.1-0.4-2.1-1-3.1-1.7
				c-0.6-0.6-1.3-1.6-2.1-3.1l-0.2-0.2c-0.3,0-0.4,0-0.5,0.1c-3.9,2.9-6,4.8-6.3,5.8c-0.1,0.2-0.3,0.3-0.5,0.3c-0.3,0-1-1-2.2-2.9
				c-0.2-0.3-0.3-0.7-0.3-1.2c2.2-0.9,5-2.6,8.4-5c0.2-0.1,0.3-0.5,0.3-1.1v-12.1H4.3c-0.5,0-0.7-0.3-0.7-1v-1.8
				C3.6,123.1,3.9,122.8,4.3,122.8z M7.1,108.7c2.1,1.2,3.7,2.3,5,3.3c1.5,1.2,2.8,2.3,3.9,3.3c0,0.1-0.1,0.2-0.3,0.5
				c-1.1,1.6-1.7,2.5-1.8,2.5c-1.6-1.6-3.4-3-5.4-4.3c-1.5-1.1-2.8-1.8-3.8-2.2c0-0.3,0.6-1.1,1.8-2.6
				C6.8,108.8,6.9,108.7,7.1,108.7z M8.2,97.1c2,1,3.6,1.9,4.9,2.8c1.5,1,2.8,2,3.8,2.9c0,0.1-0.1,0.2-0.3,0.5
				c-1.1,1.6-1.7,2.5-1.8,2.5c-1.6-1.4-3.4-2.6-5.2-3.7c-1.5-0.9-2.7-1.6-3.7-1.9c0-0.2,0.6-1.1,1.8-2.6C7.9,97.2,8,97.1,8.2,97.1z
				 M36.3,95.5c2.9,0,4.4,0.2,4.4,0.7s-0.2,0.8-0.6,0.9c-0.4,0.1-0.6,0.5-0.6,1.2v2.7H55c0.3,0,0.5,0.2,0.5,0.7v1.8
				c0,0.5-0.2,0.7-0.5,0.7h-9.9l2,0.9c0.6,0.2,0.9,0.5,0.9,0.7s-0.2,0.4-0.5,0.5c-0.3,0-0.6,0.2-0.6,0.5c-0.6,1.7-1.2,3.1-1.8,4.2
				h7.2c0.8,0,1.1,0.2,1.1,0.7v27c0,1.1-0.6,1.9-1.7,2.6c-1.1,0.5-2.5,0.8-4.2,0.9c-0.4,0-0.7-0.2-0.7-0.6c0-0.8-0.5-2.1-1.3-3.7
				c0-0.1,0.1-0.2,0.3-0.2c1.7,0,2.7-0.1,3-0.4c0.4-0.2,0.6-0.6,0.6-1.1v-22H38.8v4.3H47c0.3,0,0.5,0.2,0.5,0.7v1.8
				c0,0.5-0.2,0.7-0.5,0.7h-8.2v4.3h5.3c0.6,0,0.9,0.2,0.9,0.7v10c0,0.5-0.3,0.7-0.9,0.7H32.6v1.6c0,0.5-0.3,0.7-0.9,0.7h-2.3
				c-0.5,0-0.7-0.2-0.7-0.7v-12.3c0-0.5,0.2-0.7,0.7-0.7h5.2v-4.3h-7c-0.3,0-0.5-0.2-0.5-0.7v-1.8c0-0.5,0.2-0.7,0.5-0.7h7.1v-4.3
				h-9.6v26.4c0,0.5-0.3,0.7-0.9,0.7h-2.3c-0.6,0-0.9-0.2-0.9-0.7v-28.9c0-0.5,0.3-0.7,0.9-0.7h8.3c-0.1-0.3-0.2-0.5-0.3-0.8
				c-0.6-1.4-1.4-2.8-2.5-4.2c0-0.2,1-0.8,3-1.8c1.1,1.5,1.9,2.9,2.5,4.2c0.5,0.9,0.9,1.7,1.2,2.6h6.4c0.8-1.1,1.3-2,1.7-2.9
				c0.7-1.3,1.2-2.6,1.5-3.9v-0.1H20.1c-0.3,0-0.5-0.2-0.5-0.7v-1.8c0-0.5,0.1-0.7,0.5-0.7h15.3v-4.8C35.3,95.7,35.7,95.5,36.3,95.5
				z M32.6,134.3H41v-5h-8.4V134.3z"/>
			<path class="st2" d="M68.7,106.4c2.9,0.6,4.3,1.1,4.3,1.4c0,0.4-0.2,0.7-0.7,0.9c-0.5,0.4-0.7,0.8-0.7,1.3
				c-0.4,4.1-0.9,7.5-1.4,10.2c-0.3,1.4-0.8,2.9-1.3,4.5c-0.2,0.3-0.3,0.5-0.4,0.5c-1.3-0.4-2.4-0.6-3.4-0.8
				c-0.3-0.1-0.5-0.3-0.5-0.6c0.8-1.9,1.5-4.1,2.1-6.4s1.1-5.7,1.4-10.1C68.1,106.7,68.3,106.4,68.7,106.4z M74.6,95.2
				c2.9,0,4.3,0.2,4.3,0.7s-0.2,0.8-0.6,0.9c-0.4,0-0.6,0.4-0.6,1.2v50.3c0,0.4-0.3,0.6-0.9,0.6h-2.2c-0.6,0-0.9-0.2-0.9-0.6V95.9
				C73.7,95.5,74,95.2,74.6,95.2z M82.2,106c0.3,0,0.6,0.1,0.7,0.2c1.1,2.7,2.1,5.5,3,8.5c0,0.5-0.1,0.8-0.4,0.9
				c-1.4,0.9-2.5,1.4-3.3,1.4c-0.9-3.7-1.7-6.8-2.5-9.2C79.7,107.4,80.5,106.8,82.2,106z M90.8,99.9l3.9,1.4
				c0.4,0.3,0.6,0.6,0.6,0.9s-0.1,0.5-0.5,0.6c-0.3,0-0.5,0.2-0.6,0.7c-0.3,1.8-0.7,3.4-1,4.7h7.5V96.1c0-0.5,0.3-0.7,0.9-0.7
				c2.9,0,4.3,0.2,4.3,0.7s-0.2,0.8-0.6,0.9s-0.6,0.5-0.6,1.2v10h12.8c0.5,0,0.7,0.3,0.7,0.9v1.8c0,0.6-0.2,1-0.7,1h-12.8v13.4h11.4
				c0.5,0,0.7,0.3,0.7,1v1.8c0,0.6-0.2,1-0.7,1h-11.4v14.1h14.4c0.5,0,0.7,0.3,0.7,0.9v1.9c0,0.6-0.2,0.9-0.7,0.9H85.8
				c-0.5,0-0.7-0.3-0.7-0.9v-1.9c0-0.6,0.2-0.9,0.7-0.9h15.1v-14.1H89.7c-0.5,0-0.7-0.3-0.7-1v-1.8c0-0.6,0.2-1,0.7-1h11.2V112h-8.4
				c-0.5,1.8-1.1,3.5-1.8,5.1c-0.6,1.6-1.4,2.9-2.1,4.2c-0.5,0-0.9-0.1-1.3-0.2c-0.8-0.3-1.5-0.6-2.2-0.9c-0.3-0.1-0.4-0.2-0.4-0.3
				c0-0.2,0.1-0.3,0.2-0.5c1.1-1.9,2.1-4.2,3-6.9c0.5-1.6,1-3.2,1.4-5c0.5-1.9,0.9-4.3,1.3-7.2C90.6,100,90.7,99.9,90.8,99.9z"/>
			<path class="st2" d="M132,96.4h19.2c0.6,0,0.9,0.2,0.9,0.7v16.4c0,0.5-0.3,0.7-0.9,0.7h-16v33.7c0,0.5-0.3,0.7-0.9,0.7H132
				c-0.6,0-0.9-0.2-0.9-0.7V97.1C131.1,96.6,131.4,96.4,132,96.4z M135.2,103.7h13.2v-4h-13.2V103.7z M135.2,111h13.2v-4.1h-13.2
				V111z M145.9,117.6l3.5,1.5c0.6,0.2,0.9,0.5,0.9,0.8c0,0.2-0.3,0.3-0.8,0.4c-0.7,0-1.2,0.1-1.3,0.4c-1.1,1.1-2.2,2.1-3.2,2.9
				h20.3c-0.4-0.3-0.7-0.5-1-0.8c-1-0.8-1.7-1.8-2.1-2.9c-0.1-0.1-0.1-0.2-0.2-0.3h-8.4c-0.5,0-0.7-0.3-0.7-1v-1.8
				c0-0.5,0.2-0.7,0.7-0.7h10.5c0.6,0,0.9,0.2,0.9,0.7c0,0.9,0.2,1.7,0.7,2.4c0.4,0.7,1,1.3,1.7,1.8s1.6,0.9,2.9,1.3
				c0.9,0.3,1.8,0.5,2.9,0.7c0.3,0,0.4,0.1,0.4,0.2s-0.2,0.2-0.5,0.4c-0.6,0.6-1.3,1.3-1.9,2c-0.3,0.2-0.6,0.3-1.1,0.3
				c-0.8-0.2-1.7-0.5-2.7-1c-0.3-0.2-0.7-0.3-1-0.5V135c0,0.5-0.3,0.7-0.9,0.7h-5v4.6c0,1.5,0.9,2.3,2.7,2.3h2.3
				c0.3,0,0.6-0.2,0.7-0.5c0.2-0.3,0.2-1.2,0.3-2.7c0-0.2,0.1-0.3,0.1-0.3c1,0.6,2.1,0.9,3.2,0.9c0.5,0,0.7,0.2,0.7,0.6
				c-0.3,2.3-0.7,3.9-1.3,4.6c-0.3,0.6-0.9,0.9-1.7,0.9h-6.2c-3,0-4.6-1.2-4.6-3.5v-6.8h-4.1c0,1.1-0.1,2-0.2,2.9
				c-0.2,1.1-0.5,2.1-1,3c-0.4,0.9-1.1,1.7-2,2.5s-2.1,1.4-3.5,2c-1.1,0.4-2.4,0.7-3.8,1c-0.3,0-0.6-0.2-0.6-0.6
				c-0.5-0.7-1-1.4-1.5-2.2c-0.1-0.2-0.2-0.4-0.2-0.6c1.9-0.3,3.4-0.6,4.6-1c0.9-0.3,1.6-0.7,2.2-1.2c0.6-0.4,1-0.9,1.3-1.4
				c0.4-0.6,0.7-1.3,0.9-2.2c0.1-0.5,0.2-1.3,0.2-2.3h-4.3c-0.6,0-0.9-0.2-0.9-0.7v-10.6c-0.5,0.3-1,0.6-1.4,0.9
				c-0.5,0.2-0.9,0.3-1.1,0.3c-0.3,0-0.6-0.1-1-0.3c-0.8-0.3-1.5-0.7-2.2-1c-0.3-0.1-0.5-0.2-0.5-0.2c0-0.1,0.1-0.2,0.3-0.3
				c1.8-1,3.2-1.9,4.2-2.7c1.3-0.9,2.3-1.9,3-3C145.4,117.7,145.6,117.6,145.9,117.6z M162.3,132.2v-5.3h-14.4v5.3H162.3z
				 M159.1,96.4h19.4c0.8,0,1.1,0.2,1.1,0.7V143c0,1.9-0.7,3.4-2.1,4.5c-1.3,0.8-3.1,1.3-5.2,1.6c-0.4,0-0.6-0.2-0.7-0.6
				c-0.1-0.8-0.5-2.1-1.4-3.7c0-0.2,0.1-0.3,0.4-0.3c2.3,0,3.7-0.2,4.1-0.7c0.5-0.5,0.7-1.3,0.7-2.3v-27.2H159
				c-0.6,0-0.9-0.2-0.9-0.7V97.1C158.2,96.6,158.5,96.4,159.1,96.4z M162.3,103.7h13.2v-4h-13.2V103.7z M162.3,111h13.2v-4.1h-13.2
				V111z"/>
			<path class="st2" d="M192.3,105h17.6c0.5,0,0.7,0.3,0.7,0.9v1.8c0,0.6-0.2,0.9-0.7,0.9h-17.6c-0.5,0-0.7-0.3-0.7-0.9V106
				C191.6,105.4,191.8,105,192.3,105z M193.8,130.4h14.4c0.6,0,0.9,0.2,0.9,0.7v15.7c0,0.5-0.3,0.7-0.9,0.7h-2.3
				c-0.5,0-0.7-0.2-0.7-0.7V145H197v2.7c0,0.5-0.3,0.7-0.9,0.7h-2.3c-0.5,0-0.7-0.2-0.7-0.7V131
				C193.2,130.6,193.4,130.4,193.8,130.4z M195,96.6h12.8c0.5,0,0.7,0.3,0.7,1v1.8c0,0.6-0.2,0.9-0.7,0.9H195
				c-0.5,0-0.7-0.3-0.7-0.9v-1.8C194.3,96.9,194.5,96.6,195,96.6z M195,113.3h12.8c0.5,0,0.7,0.3,0.7,1v1.8c0,0.7-0.2,1-0.7,1H195
				c-0.5,0-0.7-0.3-0.7-1v-1.8C194.3,113.6,194.5,113.3,195,113.3z M195,121.5h12.8c0.5,0,0.7,0.3,0.7,0.9v1.9
				c0,0.6-0.2,0.9-0.7,0.9H195c-0.5,0-0.7-0.3-0.7-0.9v-1.9C194.3,121.8,194.5,121.5,195,121.5z M197,141.4h8.2v-7.5H197V141.4z
				 M215.5,124.4h25.3c0.6,0,0.9,0.2,0.9,0.7v17.1c0,0.5-0.3,0.7-0.9,0.7h-5.4c1.1,0.7,2.1,1.3,3.1,1.7c1.2,0.5,2.9,1.1,5.2,1.8
				c0.3,0.2,0.5,0.3,0.5,0.4c0,0.3-0.8,1.2-2.3,2.7c-0.1,0-0.3,0-0.6-0.1c-4.4-1.7-7.7-3.3-9.8-4.8c-0.2-0.2-0.3-0.3-0.3-0.3
				c0-0.2,0.4-0.6,1.2-1.4h-8.6c1.4,1.2,2.1,1.9,2.1,2.1c0,0.3-0.2,0.4-0.6,0.4c-0.7,0-1.1,0.1-1.2,0.3c-3,1.8-6.2,3.2-9.6,4.3
				c-0.4,0-0.7-0.2-0.9-0.5c-0.2-0.5-0.6-0.9-1.2-1.4c-0.3-0.2-0.4-0.4-0.4-0.6c0-0.2,0.2-0.3,0.5-0.3c1.8-0.5,3.3-1.1,4.7-1.8
				c1.4-0.6,2.7-1.4,4-2.4h-5.7c-0.6,0-0.9-0.2-0.9-0.7v-17.1C214.6,124.7,214.9,124.4,215.5,124.4z M213,99.1h13.2v-3
				c0-0.3,0.2-0.5,0.7-0.5c2.7,0,4.1,0.2,4.1,0.7s-0.2,0.8-0.5,0.8s-0.5,0.4-0.5,1V99h13.2c0.3,0,0.5,0.2,0.5,0.7v1.3
				c0,0.6-0.2,1-0.5,1H230v2.5h10.7c0.3,0,0.5,0.2,0.5,0.6v1.4c0,0.6-0.2,0.9-0.5,0.9h-25.6c-0.3,0-0.5-0.3-0.5-0.9v-1.4
				c0-0.4,0.1-0.6,0.5-0.6h11V102h-13.2c-0.3,0-0.5-0.3-0.5-1v-1.3C212.6,99.4,212.7,99.1,213,99.1z M213.5,110.1h29.4
				c0.6,0,0.9,0.2,0.9,0.7v10.8c0,0.4-0.3,0.6-0.9,0.6h-29.4c-0.6,0-0.9-0.2-0.9-0.6v-10.8C212.6,110.3,212.9,110.1,213.5,110.1z
				 M221.2,119.6v-7.1h-5v7.1H221.2z M218.5,129.9h19.4v-2.7h-19.4V129.9z M218.5,135.2h19.4v-2.7h-19.4V135.2z M237.9,140.2v-2.5
				h-19.4v2.5H237.9z M230.6,119.6v-7.1h-5.5v7.1H230.6z M240.2,119.6v-7.1h-5.7v7.1H240.2z"/>
		</g>
	</g>
	<g>
		<path class="st0" d="M699.3,90.2c-1.4-2.9-4.7-8.4-7.6-12.9V120h-8.8V80.4c-3.6,8.9-8,17.2-12.5,22.8c-0.9-2.4-3-6.2-4.4-8.4
			c5.8-6.6,12-18.3,15.7-28.6h-14.4v-8.5h15.7V44.5c-4.2,0.8-8.4,1.4-12.3,2c-0.3-2-1.6-5.2-2.5-7c11-1.8,23.5-4.6,31.1-7.9l5.2,7.4
			c-3.7,1.5-8,2.6-12.6,3.7v15h13.7v8.5h-13.7v1.4c2.9,3,11.2,13,13.1,15.5L699.3,90.2z M745.1,95v25h-9V96.6l-30.8,5.2L704,93
			l32.2-5.4V30.4h9v55.8l10.7-1.8l1.4,8.5L745.1,95z M723.8,81.8c-3.2-4.2-10.4-10.5-16.3-14.6l5.8-5.3c5.9,3.9,13.3,9.8,16.7,13.9
			L723.8,81.8z M726.3,56.1c-2.9-4.1-9.6-10.1-15.2-14.2l6-5.2c5.6,3.8,12.3,9.5,15.6,13.6L726.3,56.1z"/>
		<path class="st0" d="M856.4,66.9v7.5h-87.5v-7.5h29.6V49.2h-24.3v-7.4h17.6c-1.4-2.7-3.5-6.2-5.7-8.7l7.9-3c2.8,3,5.7,7,6.8,10
			l-4,1.8h26.3c2.2-3.4,5.1-8.2,6.6-11.7l9,2.8c-1.8,3.1-3.7,6.3-5.7,8.9h18.5v7.4h-25.4v17.7H856.4z M785.6,49.6
			c3.2,4.2,6.2,10,7.2,14l-7.8,3.1c-1.1-3.9-3.8-9.9-6.8-14.3L785.6,49.6z M781.6,79.6h62.3v40h-9.3v-2.7h-44.1v3.1h-8.9V79.6z
			 M790.5,86.7v8h44.1v-8H790.5z M834.6,109.8v-8.1h-44.1v8.1H834.6z M807,66.9h10.6V49.2H807V66.9z M831.2,64.3
			c2.3-4,5.5-10.4,7-14.9l8.3,2.5c-2.6,5.4-5.7,10.9-8.3,14.7L831.2,64.3z"/>
		<path class="st0" d="M881.3,62.1v58h-8.5V33.8h36.3v28.4H881.3z M881.3,39.9V45h19.3v-5.1H881.3z M900.6,56.1v-5.5h-19.3v5.5
			H900.6z M953.9,109.5c0,4.5-0.9,6.7-3.5,8.2c-2.7,1.4-6.9,1.6-12.8,1.6c-0.2-1.7-0.9-4-1.7-6.1c-1.3,1.4-2.8,1.9-5.3,1.9h-7.3
			c-6.8,0-8.3-2.1-8.3-8.7v-9.9h-6.7c-1.7,10-5.8,16.1-18.4,20.1c-0.8-1.9-2.8-4.9-4.4-6.2c10.6-2.6,14-7,15.2-14h-6.1V79.9
			c-1.8,1.2-3.5,2.2-5.3,3c-1.4-1.4-3.7-3.5-5.3-4.6c7-3.3,14.8-9,18.4-14.2l7.1,2.2c-2.9,4-7.2,8-11.8,11.3h31.8
			c-4.2-3.4-9.3-7-13.9-9.8l5-3.7c6.9,4.1,15.7,10.5,20.1,14.8l-5.3,4.3c-1.2-1.4-2.6-2.7-4.5-4.3v17.4h-8.3v9.8c0,2,0.3,2.2,2,2.2
			h5.2c1.7,0,2-0.8,2.2-6.8c1.5,1.1,4.5,2.2,6.6,2.6c-0.2,3-0.7,5.3-1.4,6.9c3,0.1,5.6,0.1,6.5,0.1c1.3-0.1,1.7-0.5,1.7-1.8V62.1
			h-28.5V34h37.2V109.5z M901.7,90.9h21.6v-7.6h-21.6V90.9z M925.3,40v5.2h19.9V40H925.3z M945.2,56.1v-5.4h-19.9v5.4H945.2z"/>
		<path class="st0" d="M1000.6,53.7h-31.5v-7.2H985c-1.9-3.6-5.2-8.7-8.2-12.4l7.6-3.1c3.5,3.8,7.1,9,8.8,12.6l-6.5,2.9h13.9V53.7z
			 M999,79.9h-26.8v-7.1H999V79.9z M998.1,114.6h-18v4.3h-7.2V86.1h25.2V114.6z M973.1,66.9v-7.1h25.1v7.1H973.1z M980.1,93.3v14.2
			h10.7V93.3H980.1z M1040.2,106c6.9,2.7,14.3,6.1,19,8.3l-4.9,6.1c-4.8-2.6-12.7-6.6-19.9-9.6l3.6-4.8h-18.1l6.3,3.7
			c-5.5,4.1-14.5,8.3-21.8,10.5c-1.4-1.6-4-4.1-5.8-5.6c7-1.9,15.2-5.5,19.6-8.6h-11.1V77.3h47.1V106H1040.2z M1025.3,41.2h-21.7v-6
			h21.7v-4.9h8.8v4.9h23.2v6h-23.2v4.1h20.6V51h-47.9v-5.7h18.5V41.2z M1004.1,54.3h52.6v19.8h-52.6V54.3z M1011.3,69.3h8.2V59.2
			h-8.2V69.3z M1015.1,85.9h30.6v-3.5h-30.6V85.9z M1015.1,93.3h30.6v-3.6h-30.6V93.3z M1015.1,101.1h30.6v-3.9h-30.6V101.1z
			 M1034.7,69.3V59.2h-9.3v10.1H1034.7z M1049.1,59.2h-8.5v10.1h8.5V59.2z"/>
		<path class="st0" d="M1154.6,51.1c0,0-0.1,3.2-0.2,4.5c-2.2,39.6-4,54.1-8.3,59.1c-2.6,3.1-5.2,4.1-9,4.5c-3.5,0.4-9.8,0.3-15.6,0
			c-0.2-2.6-1.5-6.6-3.2-9.4c6.5,0.6,12.4,0.6,14.9,0.6c2.2,0,3.3-0.3,4.5-1.5c3.3-3.1,5.4-16.5,7-48.5h-30.6
			c-1.5,20.1-8.1,43.8-35.9,60.2c-1.5-2.2-4.9-5.7-7-7.3c25.4-14.6,31.8-35.3,33.3-52.9h-30.3v-9.3h30.8v-2.4V30.6h9.6v18.1v2.4
			H1154.6z"/>
		<path class="st0" d="M1222.8,66.8c6.7,20.3,19,36.9,37.5,44.6c-2.3,2-5.3,5.8-6.8,8.5c-18.3-8.5-30.1-24.3-37.8-45.1
			c-5,17.7-15.6,34.6-37.8,45.1c-1.5-2.4-4.4-5.7-6.9-7.6c23.3-10.2,32.8-27.8,36.7-45.5H1173v-9.4h36.4c1.2-9.8,1.1-19.2,1.2-27
			h9.9c-0.1,7.9-0.2,17.3-1.4,27h39.4v9.4H1222.8z"/>
		<path class="st0" d="M1343.9,107.3h-10.7c9,2.4,18,5.3,24.1,7.2l-7.4,5.1c-6.5-2.3-17.2-6-28-9l3.8-3.3h-19.8l4.5,2.9
			c-7.8,4.3-20.8,7.9-31.4,9.7c-1.3-1.6-3.6-4.3-5.4-5.9c8.7-1.4,19.1-4,25.9-6.7h-10.7V84.8c-4.1,2.3-8.4,4.4-12.6,5.8
			c-1.2-1.9-3.6-5.1-5.4-6.6c8.1-2.2,16.8-6.4,23.2-11.2h-20.4v-6.6h24.2v-3.5h-12.7v-5h12.7v-3.8h-14.1v-5.2h14.1v-3.8h8.4v3.8
			h20.2v-3.8h8.5v3.8h14v5.2h-14v3.8h13v5h-13v3.5h24.3v6.6h-19c6,4.3,14,7.8,21.6,9.7c-1.9,1.8-4.5,4.9-5.7,7
			c-4.1-1.4-8.3-3.3-12.3-5.6V107.3z M1282.8,51.7h-8.3V36.2h38.1c-0.7-1.6-1.5-3.1-2.2-4.5l9-2.3c1.3,2.1,2.7,4.6,3.6,6.8h35.4
			v15.4h-8.6v-8.4h-66.9V51.7z M1335.2,81.7h-38v3.7h38V81.7z M1335.2,90.1h-38v3.8h38V90.1z M1335.2,98.6h-38v3.9h38V98.6z
			 M1304.3,72.8c-1.3,1.5-2.7,2.7-4.3,4.1h34.2c-1.5-1.4-2.8-2.6-4.2-4.1H1304.3z M1306.2,57.7h20.2v-3.8h-20.2V57.7z M1306.2,66.2
			h20.2v-3.5h-20.2V66.2z"/>
	</g>
</g>
</svg>
